<svg width="16" height="9" viewBox="0 0 16 9" fill="none" xmlns="http://www.w3.org/2000/svg">
<path d="M1.625 0C1.47666 0 1.33166 0.0439868 1.20832 0.126398C1.08499 0.208809 0.988856 0.325943 0.932091 0.462988C0.875325 0.600032 0.860472 0.750832 0.889411 0.896318C0.91835 1.0418 0.989781 1.17544 1.09467 1.28033C1.19956 1.38522 1.3332 1.45665 1.47868 1.48559C1.62417 1.51453 1.77497 1.49968 1.91201 1.44291C2.04906 1.38614 2.16619 1.29001 2.2486 1.16668C2.33101 1.04334 2.375 0.898336 2.375 0.75C2.375 0.551088 2.29598 0.360322 2.15533 0.21967C2.01468 0.0790178 1.82391 0 1.625 0ZM4.625 1.5H15.125C15.3239 1.5 15.5147 1.42098 15.6553 1.28033C15.796 1.13968 15.875 0.948912 15.875 0.75C15.875 0.551088 15.796 0.360322 15.6553 0.21967C15.5147 0.0790178 15.3239 0 15.125 0H4.625C4.42609 0 4.23532 0.0790178 4.09467 0.21967C3.95402 0.360322 3.875 0.551088 3.875 0.75C3.875 0.948912 3.95402 1.13968 4.09467 1.28033C4.23532 1.42098 4.42609 1.5 4.625 1.5ZM4.625 3.75C4.47666 3.75 4.33166 3.79399 4.20832 3.8764C4.08499 3.95881 3.98886 4.07594 3.93209 4.21299C3.87532 4.35003 3.86047 4.50083 3.88941 4.64632C3.91835 4.7918 3.98978 4.92544 4.09467 5.03033C4.19956 5.13522 4.3332 5.20665 4.47868 5.23559C4.62417 5.26453 4.77497 5.24968 4.91201 5.19291C5.04906 5.13614 5.16619 5.04001 5.2486 4.91668C5.33101 4.79334 5.375 4.64834 5.375 4.5C5.375 4.30109 5.29598 4.11032 5.15533 3.96967C5.01468 3.82902 4.82391 3.75 4.625 3.75ZM7.625 7.5C7.47666 7.5 7.33166 7.54399 7.20832 7.6264C7.08499 7.70881 6.98886 7.82594 6.93209 7.96299C6.87533 8.10003 6.86047 8.25083 6.88941 8.39632C6.91835 8.5418 6.98978 8.67544 7.09467 8.78033C7.19956 8.88522 7.3332 8.95665 7.47868 8.98559C7.62417 9.01453 7.77497 8.99968 7.91201 8.94291C8.04906 8.88614 8.16619 8.79002 8.2486 8.66668C8.33101 8.54334 8.375 8.39834 8.375 8.25C8.375 8.05109 8.29598 7.86032 8.15533 7.71967C8.01468 7.57902 7.82391 7.5 7.625 7.5ZM15.125 3.75H7.625C7.42609 3.75 7.23532 3.82902 7.09467 3.96967C6.95402 4.11032 6.875 4.30109 6.875 4.5C6.875 4.69891 6.95402 4.88968 7.09467 5.03033C7.23532 5.17098 7.42609 5.25 7.625 5.25H15.125C15.3239 5.25 15.5147 5.17098 15.6553 5.03033C15.796 4.88968 15.875 4.69891 15.875 4.5C15.875 4.30109 15.796 4.11032 15.6553 3.96967C15.5147 3.82902 15.3239 3.75 15.125 3.75ZM15.125 7.5H10.625C10.4261 7.5 10.2353 7.57902 10.0947 7.71967C9.95402 7.86032 9.875 8.05109 9.875 8.25C9.875 8.44891 9.95402 8.63968 10.0947 8.78033C10.2353 8.92098 10.4261 9 10.625 9H15.125C15.3239 9 15.5147 8.92098 15.6553 8.78033C15.796 8.63968 15.875 8.44891 15.875 8.25C15.875 8.05109 15.796 7.86032 15.6553 7.71967C15.5147 7.57902 15.3239 7.5 15.125 7.5Z" fill="white"/>
</svg>
