<svg width="101" height="35" viewBox="0 0 101 35" fill="none" xmlns="http://www.w3.org/2000/svg">
<rect x="0.5" y="0.5" width="100" height="34" rx="4.5" fill="#FDE68A"/>
<g clip-path="url(#clip0_36_2173)">
<path d="M5 5H30V30H5V5Z" fill="#012169"/>
<path d="M30 5V8.125L20.7227 17.5L30 26.6309V30H26.7285L17.4023 20.8203L8.32031 30H5V26.6797L14.082 17.5488L5 8.61328V5H8.02734L17.4023 14.1797L26.4844 5H30Z" fill="white"/>
<path d="M13.9844 20.8203L14.5215 22.4805L7.05078 30H5V29.8535L13.9844 20.8203ZM20.0391 20.2344L22.6758 20.625L30 27.8027V30L20.0391 20.2344ZM30 5L20.625 14.5703L20.4297 12.4219L27.7539 5H30ZM5 5.04883L14.4238 14.2773L11.543 13.8867L5 7.39258V5.04883Z" fill="#C8102E"/>
<path d="M13.5938 5V30H21.4062V5H13.5938ZM5 13.5938V21.4062H30V13.5938H5Z" fill="white"/>
<path d="M5 15.1562V19.8438H30V15.1562H5ZM15.1562 5V30H19.8438V5H15.1562Z" fill="#C8102E"/>
</g>
<path d="M37.688 13.532V17.26H41.752V18.46H37.688V22.3H42.232V23.5H36.232V12.332H42.232V13.532H37.688ZM48.7071 14.572C49.7738 14.572 50.6378 14.8973 51.2991 15.548C51.9605 16.188 52.2911 17.116 52.2911 18.332V23.5H50.8511V18.54C50.8511 17.6653 50.6325 16.9987 50.1951 16.54C49.7578 16.0707 49.1605 15.836 48.4031 15.836C47.6351 15.836 47.0218 16.076 46.5631 16.556C46.1151 17.036 45.8911 17.7347 45.8911 18.652V23.5H44.4351V14.732H45.8911V15.98C46.1791 15.532 46.5685 15.1853 47.0591 14.94C47.5605 14.6947 48.1098 14.572 48.7071 14.572ZM58.2855 14.588C59.0428 14.588 59.7042 14.7533 60.2695 15.084C60.8455 15.4147 61.2722 15.8307 61.5495 16.332V14.732H63.0215V23.692C63.0215 24.492 62.8508 25.2013 62.5095 25.82C62.1682 26.4493 61.6775 26.94 61.0375 27.292C60.4082 27.644 59.6722 27.82 58.8295 27.82C57.6775 27.82 56.7175 27.548 55.9495 27.004C55.1815 26.46 54.7282 25.7187 54.5895 24.78H56.0295C56.1895 25.3133 56.5202 25.74 57.0215 26.06C57.5228 26.3907 58.1255 26.556 58.8295 26.556C59.6295 26.556 60.2802 26.3053 60.7815 25.804C61.2935 25.3027 61.5495 24.5987 61.5495 23.692V21.852C61.2615 22.364 60.8348 22.7907 60.2695 23.132C59.7042 23.4733 59.0428 23.644 58.2855 23.644C57.5068 23.644 56.7975 23.452 56.1575 23.068C55.5282 22.684 55.0322 22.1453 54.6695 21.452C54.3068 20.7587 54.1255 19.9693 54.1255 19.084C54.1255 18.188 54.3068 17.404 54.6695 16.732C55.0322 16.0493 55.5282 15.5213 56.1575 15.148C56.7975 14.7747 57.5068 14.588 58.2855 14.588ZM61.5495 19.1C61.5495 18.4387 61.4162 17.8627 61.1495 17.372C60.8828 16.8813 60.5202 16.508 60.0615 16.252C59.6135 15.9853 59.1175 15.852 58.5735 15.852C58.0295 15.852 57.5335 15.98 57.0855 16.236C56.6375 16.492 56.2802 16.8653 56.0135 17.356C55.7468 17.8467 55.6135 18.4227 55.6135 19.084C55.6135 19.756 55.7468 20.3427 56.0135 20.844C56.2802 21.3347 56.6375 21.7133 57.0855 21.98C57.5335 22.236 58.0295 22.364 58.5735 22.364C59.1175 22.364 59.6135 22.236 60.0615 21.98C60.5202 21.7133 60.8828 21.3347 61.1495 20.844C61.4162 20.3427 61.5495 19.7613 61.5495 19.1ZM66.938 11.66V23.5H65.482V11.66H66.938ZM70.1715 13.308C69.8942 13.308 69.6595 13.212 69.4675 13.02C69.2755 12.828 69.1795 12.5933 69.1795 12.316C69.1795 12.0387 69.2755 11.804 69.4675 11.612C69.6595 11.42 69.8942 11.324 70.1715 11.324C70.4382 11.324 70.6622 11.42 70.8435 11.612C71.0355 11.804 71.1315 12.0387 71.1315 12.316C71.1315 12.5933 71.0355 12.828 70.8435 13.02C70.6622 13.212 70.4382 13.308 70.1715 13.308ZM70.8755 14.732V23.5H69.4195V14.732H70.8755ZM76.461 23.644C75.789 23.644 75.1863 23.532 74.653 23.308C74.1197 23.0733 73.6983 22.7533 73.389 22.348C73.0797 21.932 72.909 21.4573 72.877 20.924H74.381C74.4237 21.3613 74.6263 21.7187 74.989 21.996C75.3623 22.2733 75.8477 22.412 76.445 22.412C76.9997 22.412 77.437 22.2893 77.757 22.044C78.077 21.7987 78.237 21.4893 78.237 21.116C78.237 20.732 78.0663 20.4493 77.725 20.268C77.3837 20.076 76.8557 19.8893 76.141 19.708C75.4903 19.5373 74.957 19.3667 74.541 19.196C74.1357 19.0147 73.7837 18.7533 73.485 18.412C73.197 18.06 73.053 17.6013 73.053 17.036C73.053 16.588 73.1863 16.1773 73.453 15.804C73.7197 15.4307 74.0983 15.1373 74.589 14.924C75.0797 14.7 75.6397 14.588 76.269 14.588C77.2397 14.588 78.0237 14.8333 78.621 15.324C79.2183 15.8147 79.5383 16.4867 79.581 17.34H78.125C78.093 16.8813 77.9063 16.5133 77.565 16.236C77.2343 15.9587 76.7863 15.82 76.221 15.82C75.6983 15.82 75.2823 15.932 74.973 16.156C74.6637 16.38 74.509 16.6733 74.509 17.036C74.509 17.324 74.5997 17.564 74.781 17.756C74.973 17.9373 75.2077 18.0867 75.485 18.204C75.773 18.3107 76.1677 18.4333 76.669 18.572C77.2983 18.7427 77.8103 18.9133 78.205 19.084C78.5997 19.244 78.9357 19.4893 79.213 19.82C79.501 20.1507 79.6503 20.5827 79.661 21.116C79.661 21.596 79.5277 22.028 79.261 22.412C78.9943 22.796 78.6157 23.1 78.125 23.324C77.645 23.5373 77.0903 23.644 76.461 23.644ZM86.0684 14.572C86.7297 14.572 87.327 14.716 87.8604 15.004C88.3937 15.2813 88.8097 15.7027 89.1084 16.268C89.4177 16.8333 89.5724 17.5213 89.5724 18.332V23.5H88.1324V18.54C88.1324 17.6653 87.9137 16.9987 87.4764 16.54C87.039 16.0707 86.4417 15.836 85.6844 15.836C84.9164 15.836 84.303 16.076 83.8444 16.556C83.3964 17.036 83.1724 17.7347 83.1724 18.652V23.5H81.7164V11.66H83.1724V15.98C83.4604 15.532 83.855 15.1853 84.3564 14.94C84.8684 14.6947 85.439 14.572 86.0684 14.572Z" fill="#262626"/>
<rect x="0.5" y="0.5" width="100" height="34" rx="4.5" stroke="#D97706"/>
<defs>
<clipPath id="clip0_36_2173">
<rect x="5" y="5" width="25" height="25" rx="3" fill="white"/>
</clipPath>
</defs>
</svg>
