<svg width="101" height="35" viewBox="0 0 101 35" fill="none" xmlns="http://www.w3.org/2000/svg">
<g clip-path="url(#clip0_36_2181)">
<path fill-rule="evenodd" clip-rule="evenodd" d="M5 5H30V30H5V5Z" fill="#E30A17"/>
<path fill-rule="evenodd" clip-rule="evenodd" d="M22.0312 17.8906C22.0312 21.3379 19.1846 24.1357 15.6787 24.1357C12.1729 24.1357 9.32617 21.3379 9.32617 17.8857C9.32617 14.4336 12.168 11.6455 15.6738 11.6455C19.1797 11.6455 22.0361 14.4385 22.0361 17.8906H22.0312Z" fill="white"/>
<path fill-rule="evenodd" clip-rule="evenodd" d="M22.3486 17.8906C22.3486 20.6494 20.0732 22.8857 17.2656 22.8857C14.458 22.8857 12.1875 20.6494 12.1875 17.8906C12.1875 15.1318 14.458 12.8955 17.2656 12.8955C20.0732 12.8955 22.3438 15.1318 22.3438 17.8906H22.3486Z" fill="#E30A17"/>
<path fill-rule="evenodd" clip-rule="evenodd" d="M23.2666 14.9707L23.2178 17.2803L21.0596 17.8662L23.1836 18.623L23.1348 20.7373L24.5166 19.0869L26.6113 19.8096L25.4004 18.0371L26.875 16.2744L24.6094 16.8994L23.2666 14.9707Z" fill="white"/>
</g>
<path d="M43.096 12.348V13.532H40.056V23.5H38.6V13.532H35.544V12.348H43.096ZM52.6643 14.732V23.5H51.2083V22.204C50.9309 22.652 50.5416 23.004 50.0403 23.26C49.5496 23.5053 49.0056 23.628 48.4083 23.628C47.7256 23.628 47.1123 23.4893 46.5683 23.212C46.0243 22.924 45.5923 22.4973 45.2723 21.932C44.9629 21.3667 44.8083 20.6787 44.8083 19.868V14.732H46.2483V19.676C46.2483 20.54 46.4669 21.2067 46.9043 21.676C47.3416 22.1347 47.9389 22.364 48.6963 22.364C49.4749 22.364 50.0883 22.124 50.5363 21.644C50.9843 21.164 51.2083 20.4653 51.2083 19.548V14.732H52.6643ZM56.5786 16.156C56.8346 15.6547 57.1973 15.2653 57.6666 14.988C58.1466 14.7107 58.728 14.572 59.4106 14.572V16.076H59.0266C57.3946 16.076 56.5786 16.9613 56.5786 18.732V23.5H55.1226V14.732H56.5786V16.156ZM65.9874 23.5L62.5474 19.628V23.5H61.0914V11.66H62.5474V18.62L65.9234 14.732H67.9554L63.8274 19.1L67.9714 23.5H65.9874ZM70.0778 13.308C69.8004 13.308 69.5658 13.212 69.3738 13.02C69.1818 12.828 69.0858 12.5933 69.0858 12.316C69.0858 12.0387 69.1818 11.804 69.3738 11.612C69.5658 11.42 69.8004 11.324 70.0778 11.324C70.3444 11.324 70.5684 11.42 70.7498 11.612C70.9418 11.804 71.0378 12.0387 71.0378 12.316C71.0378 12.5933 70.9418 12.828 70.7498 13.02C70.5684 13.212 70.3444 13.308 70.0778 13.308ZM70.7818 14.732V23.5H69.3258V14.732H70.7818ZM76.3673 23.644C75.6953 23.644 75.0926 23.532 74.5593 23.308C74.0259 23.0733 73.6046 22.7533 73.2953 22.348C72.9859 21.932 72.8153 21.4573 72.7833 20.924H74.2873C74.3299 21.3613 74.5326 21.7187 74.8953 21.996C75.2686 22.2733 75.7539 22.412 76.3513 22.412C76.9059 22.412 77.3433 22.2893 77.6633 22.044C77.9833 21.7987 78.1433 21.4893 78.1433 21.116C78.1433 20.732 77.9726 20.4493 77.6313 20.268C77.2899 20.076 76.7619 19.8893 76.0473 19.708C75.3966 19.5373 74.8633 19.3667 74.4473 19.196C74.0419 19.0147 73.6899 18.7533 73.3913 18.412C73.1033 18.06 72.9593 17.6013 72.9593 17.036C72.9593 16.588 73.0926 16.1773 73.3593 15.804C73.6259 15.4307 74.0046 15.1373 74.4953 14.924C74.9859 14.7 75.5459 14.588 76.1753 14.588C77.1459 14.588 77.9299 14.8333 78.5273 15.324C79.1246 15.8147 79.4446 16.4867 79.4873 17.34H78.0313C77.9993 16.8813 77.8126 16.5133 77.4713 16.236C77.1406 15.9587 76.6926 15.82 76.1273 15.82C75.6046 15.82 75.1886 15.932 74.8793 16.156C74.5699 16.38 74.4153 16.6733 74.4153 17.036C74.4153 17.324 74.5059 17.564 74.6873 17.756C74.8793 17.9373 75.1139 18.0867 75.3913 18.204C75.6793 18.3107 76.0739 18.4333 76.5753 18.572C77.2046 18.7427 77.7166 18.9133 78.1113 19.084C78.5059 19.244 78.8419 19.4893 79.1193 19.82C79.4073 20.1507 79.5566 20.5827 79.5673 21.116C79.5673 21.596 79.4339 22.028 79.1673 22.412C78.9006 22.796 78.5219 23.1 78.0313 23.324C77.5513 23.5373 76.9966 23.644 76.3673 23.644ZM85.9746 14.572C86.636 14.572 87.2333 14.716 87.7666 15.004C88.3 15.2813 88.716 15.7027 89.0146 16.268C89.324 16.8333 89.4786 17.5213 89.4786 18.332V23.5H88.0386V18.54C88.0386 17.6653 87.82 16.9987 87.3826 16.54C86.9453 16.0707 86.348 15.836 85.5906 15.836C84.8226 15.836 84.2093 16.076 83.7506 16.556C83.3026 17.036 83.0786 17.7347 83.0786 18.652V23.5H81.6226V11.66H83.0786V15.98C83.3666 15.532 83.7613 15.1853 84.2626 14.94C84.7746 14.6947 85.3453 14.572 85.9746 14.572Z" fill="#262626"/>
<rect x="0.5" y="0.5" width="100" height="34" rx="4.5" stroke="#D4D4D4"/>
<defs>
<clipPath id="clip0_36_2181">
<rect x="5" y="5" width="25" height="25" rx="3" fill="white"/>
</clipPath>
</defs>
</svg>
